<?xml version="1.0" encoding="UTF-8" standalone="no"?>
<!-- Created with Inkscape (http://www.inkscape.org/) -->

<svg
   width="27.810141mm"
   height="13.34581mm"
   viewBox="0 0 27.810141 13.34581"
   version="1.1"
   id="svg5"
   inkscape:version="1.1.2 (b8e25be8, 2022-02-05)"
   sodipodi:docname="drawing.svg"
   xmlns:inkscape="http://www.inkscape.org/namespaces/inkscape"
   xmlns:sodipodi="http://sodipodi.sourceforge.net/DTD/sodipodi-0.dtd"
   xmlns="http://www.w3.org/2000/svg"
   xmlns:svg="http://www.w3.org/2000/svg">
  <sodipodi:namedview
     id="namedview7"
     pagecolor="#000000"
     bordercolor="#666666"
     borderopacity="1.0"
     inkscape:pageshadow="2"
     inkscape:pageopacity="0"
     inkscape:pagecheckerboard="true"
     inkscape:document-units="mm"
     showgrid="false"
     fit-margin-top="0.9"
     fit-margin-left="0.7"
     fit-margin-right="0.1"
     fit-margin-bottom="0"
     inkscape:zoom="3.6799306"
     inkscape:cx="33.83216"
     inkscape:cy="31.92995"
     inkscape:window-width="1793"
     inkscape:window-height="1027"
     inkscape:window-x="169"
     inkscape:window-y="25"
     inkscape:window-maximized="0"
     inkscape:current-layer="layer1"
     width="27.81014mm"
     height="13.34581mm" />
  <defs
     id="defs2">
    <rect
       x="76.866753"
       y="121.92658"
       width="471.80283"
       height="331.32224"
       id="rect891" />
  </defs>
  <g
     inkscape:label="Layer 1"
     inkscape:groupmode="layer"
     id="layer1"
     transform="translate(-19.60672,-34.295025)">
    <g
       aria-label="Raven"
       transform="matrix(0.26458333,0,0,0.26458333,0.07882901,1.3659847)"
       id="text889"
       style="font-size:40px;line-height:1.25;white-space:pre;shape-inside:url(#rect891);fill:#ffffff">
      <path
         d="m 95.427188,163.25899 q -0.88,0 -2.08,-1.12 -1.160001,-1.08 -2.44,-2.88 -1.28,-1.76 -2.56,-3.88 -1.240001,-2.12 -2.320001,-4.24 -1.039999,-2.12 -1.759999,-3.8 -1.120001,3.92 -2.160001,7.72 -1.039999,3.76 -1.96,6.84 -1,0 -1.84,-0.56 -0.8,-0.56 -0.8,-1.44 0,-0.44 0.200001,-1.08 0.2,-0.6 0.36,-1.12 1,-3.16 1.959999,-5.96 0.960001,-2.8 1.880001,-5.4 0.919999,-2.6 1.88,-5.16 1,-2.56 2.079999,-5.16 1.08,-2.6 2.32,-5.4 -1.68,0.28 -2.919999,0.84 -1.240001,0.52 -2,1 -0.760001,0.44 -1.040001,0.44 -0.159999,0 -0.48,-0.16 -0.28,-0.2 -0.52,-0.44 -0.239999,-0.28 -0.239999,-0.48 1.039999,-0.44 2.44,-0.96 1.4,-0.52 3.079999,-0.88 1.68,-0.36 3.480001,-0.36 1.72,0 3.479999,0.44 1.800001,0.4 3.28,1.32 1.520001,0.88 2.44,2.32 0.920003,1.4 0.920003,3.4 0,1.96 -0.920003,3.4 -0.88,1.4 -2.359999,2.36 -1.440001,0.96 -3.160001,1.56 -1.72,0.56 -3.399999,0.88 -1.680001,0.28 -3.040001,0.4 -1.36,0.08 -2.04,0.08 1.240001,2.12 2.360001,4.12 1.119999,2 2.44,4 1.319999,1.96 3.12,3.96 1.799999,2 4.359999,4.08 -0.24,0.52 -0.88,0.92 -0.599999,0.4 -1.159999,0.4 z m -10.52,-18.12 q 2.16,-0.12 4.36,-0.68 2.239999,-0.6 4.08,-1.64 1.839999,-1.08 2.959999,-2.68 1.120001,-1.64 1.120001,-3.88 0,-2.2 -1.040001,-3.44 -1.039999,-1.28 -2.679999,-1.8 -1.64,-0.56 -3.44,-0.56 -1.360001,2.76 -2.72,6.64 -1.360001,3.84 -2.64,8.04 z"
         style="font-family:'Dancing Script';-inkscape-font-specification:'Dancing Script';fill:#ffffff"
         id="path16718" />
      <path
         d="m 100.81844,160.29899 q -1.240002,0 -2.080002,-0.84 -0.880001,-0.8 -0.880001,-2.48 0,-1.44 0.64,-3.08 0.64,-1.68 1.760003,-3.28 1.12,-1.64 2.52,-2.96 1.44,-1.36 3,-2.16 1.6,-0.8 3.16,-0.8 1.56,0 2.6,0.84 1.04,0.8 1.04,2.16 0,1 -0.56,1.36 -0.52,0.36 -1.4,0.36 0.08,-0.32 0.12,-0.68 0.08,-0.4 0.08,-0.72 0,-0.92 -0.44,-1.56 -0.44,-0.68 -1.52,-0.68 -1.12,0 -2.28,0.8 -1.16,0.76 -2.24,2.08 -1.08,1.28 -1.92,2.8 -0.84,1.52 -1.32,3 -0.48,1.48 -0.48,2.64 0,1.56 1.08,1.56 0.92,0 2,-0.84 1.08,-0.88 2.2,-2.2 1.16,-1.36 2.2,-2.8 1.04,-1.44 1.84,-2.64 0.16,-0.24 0.2,-0.24 0.24,0.04 0.6,0.16 0.4,0.12 0.68,0.32 0.28,0.2 0.28,0.52 0,0.36 -0.36,1 -0.36,0.6 -0.8,1.4 -0.44,0.8 -0.8,1.64 -0.36,0.8 -0.36,1.52 0,0.6 0.32,1.2 0.32,0.56 1.04,0.56 1.08,0 2.84,-1.56 1.76,-1.6 3.56,-4.76 l 0.4,0.4 q -0.84,2.16 -2.16,3.8 -1.32,1.64 -2.84,2.56 -1.48,0.92 -2.92,0.92 -1.48,0 -2.2,-0.88 -0.68,-0.88 -0.68,-1.92 0,-0.24 0.04,-0.52 0.04,-0.32 0.08,-0.64 -1.72,2.32 -3.16,3.48 -1.4,1.16 -2.88,1.16 z"
         style="font-family:'Dancing Script';-inkscape-font-specification:'Dancing Script';fill:#ffffff"
         id="path16720" />
      <path
         d="m 118.92031,159.97899 q -1.24,0 -1.72,-1.24 -0.48,-1.2 -0.48,-3.16 0,-0.08 0.04,-1.24 0.04,-1.2 0.2,-4 0.08,-1.08 0.24,-1.48 0.16,-0.4 1.04,-0.4 0.68,0 0.84,0.28 0.2,0.24 0.2,1 0,1.32 -0.2,3.12 -0.16,1.76 -0.16,3.32 0,1.16 0.2,1.72 0.2,0.52 0.72,0.52 0.72,0 1.6,-0.8 0.88,-0.84 1.8,-2.16 0.92,-1.36 1.72,-2.88 0.84,-1.52 1.48,-2.92 0.08,-2.72 0.56,-3.6 0.52,-0.92 1.28,-0.92 0.76,0 1.08,0.56 0.36,0.52 0.36,0.96 0,0.52 -0.36,1.08 -0.32,0.56 -0.68,1.52 -0.36,0.96 -0.36,2.76 0,0.64 0.12,1.36 0.12,0.72 0.52,1.2 0.4,0.48 1.24,0.48 0.84,0 1.6,-0.64 0.8,-0.68 1.56,-2.32 l 0.52,0.4 q -0.88,2 -1.96,2.68 -1.04,0.68 -2,0.68 -1.32,0 -2.2,-0.96 -0.88,-0.96 -1.16,-2.92 -0.96,1.96 -2.28,3.8 -1.28,1.8 -2.68,3 -1.4,1.2 -2.68,1.2 z"
         style="font-family:'Dancing Script';-inkscape-font-specification:'Dancing Script';fill:#ffffff"
         id="path16722" />
      <path
         d="m 136.89031,160.17899 q -2.44,0 -3.68,-1.36 -1.2,-1.32 -1.2,-3.28 0,-1.8 0.88,-3.8 0.92,-2 2.4,-3.76 1.52,-1.76 3.32,-2.84 1.8,-1.12 3.56,-1.12 0.92,0 1.68,0.48 0.8,0.48 0.8,1.96 0,1.52 -0.92,2.88 -0.88,1.32 -2.36,2.36 -1.44,1.04 -3.2,1.72 -1.72,0.64 -3.44,0.8 -0.08,0.4 -0.12,0.76 -0.04,0.36 -0.04,0.68 0,0.6 0.12,1.2 0.16,0.6 0.52,1.12 0.36,0.48 0.96,0.76 0.64,0.28 1.56,0.28 1.72,0 3.4,-0.96 1.68,-1 3.12,-2.6 1.44,-1.6 2.44,-3.52 l 0.48,0.36 q -1.08,2.4 -2.76,4.16 -1.64,1.76 -3.6,2.72 -1.92,1 -3.92,1 z m -1.96,-6.72 q 1.08,-0.36 2.44,-1.04 1.36,-0.72 2.6,-1.68 1.28,-0.96 2.08,-2.12 0.84,-1.16 0.84,-2.44 0,-0.44 -0.16,-0.68 -0.16,-0.24 -0.68,-0.24 -0.96,0 -2.04,0.76 -1.08,0.72 -2.08,1.92 -1,1.2 -1.8,2.64 -0.8,1.44 -1.2,2.88 z"
         style="font-family:'Dancing Script';-inkscape-font-specification:'Dancing Script';fill:#ffffff"
         id="path16724" />
      <path
         d="m 158.84969,159.21899 q -1.4,0 -2.12,-0.72 -0.68,-0.72 -0.68,-1.84 0,-0.84 0.28,-1.76 0.32,-0.92 0.6,-1.88 0.28,-1 0.28,-1.92 0,-1.12 -0.48,-1.52 -0.44,-0.44 -1.12,-0.44 -1.24,0 -2.52,1.04 -1.28,1 -2.48,2.6 -1.2,1.56 -2.24,3.24 -1.04,1.68 -1.84,3 -0.64,0 -1.2,-0.24 -0.6,-0.2 -0.92,-0.64 0,-0.2 0.44,-1.24 0.4,-1.04 0.96,-2.56 0.56,-1.52 1,-3.12 0.44,-1.6 0.44,-2.92 0.24,-0.28 0.76,-0.56 0.52,-0.28 1.08,-0.28 1.08,0 1.08,1.04 0,0.64 -0.36,2.16 -0.36,1.48 -0.92,3.12 1.08,-1.64 2.4,-3.24 1.36,-1.64 2.88,-2.72 1.52,-1.08 3.04,-1.08 1.56,0 2.24,1.12 0.72,1.12 0.72,2.48 0,1.24 -0.4,2.32 -0.4,1.04 -0.84,2.04 -0.4,0.96 -0.4,1.96 0,0.84 0.32,1.2 0.36,0.32 0.88,0.32 1,0 2,-0.92 1,-0.96 1.92,-2.4 0.96,-1.44 1.68,-2.92 l 0.44,0.52 q -0.84,1.96 -1.88,3.48 -1.04,1.52 -2.28,2.4 -1.24,0.88 -2.76,0.88 z"
         style="font-family:'Dancing Script';-inkscape-font-specification:'Dancing Script';fill:#ffffff"
         id="path16726" />
    </g>
    <path
       d="m 28.056729,38.261042 c 0.01306,0.04685 0.07295,0.116379 0.128486,0.148586 0.07078,0.04245 0.186194,0.07684 0.30379,0.09222 l 0.10017,0.01245 v 0.0849 c 0,0.04611 0.0054,0.08929 0.01089,0.09516 0.0088,0.0095 0.203618,0.01099 1.673568,0.0088 3.6052,-0.0059 3.40594,-0.0045 3.437516,-0.0183 0.04244,-0.01905 0.03593,-0.03953 -0.02395,-0.07832 -0.05009,-0.03295 -0.0871,-0.04684 -0.235193,-0.09076 -0.03484,-0.01099 -0.06206,-0.02049 -0.05989,-0.02196 0.0021,-0.0014 0.176396,-0.0045 0.387634,-0.0051 0.3811,-0.0029 0.383277,-0.0029 0.388722,-0.01829 l 0.0064,-0.0161 1.815118,-0.0037 c 1.690992,-0.0037 2.022006,-0.0065 2.828845,-0.02708 0.667468,-0.01684 1.616949,-0.05123 1.900052,-0.06953 0.09256,-0.0059 0.227572,-0.0139 0.299435,-0.0183 0.211238,-0.01243 0.618467,-0.04392 0.794862,-0.06075 l 0.16333,-0.0161 0.0032,-0.08783 c 0.0021,-0.0483 0,-0.09809 -0.0032,-0.109791 l -0.0054,-0.02269 -0.623912,-0.03441 c -1.192297,-0.06659 -1.818389,-0.09221 -2.637208,-0.107594 -0.534626,-0.0095 -2.21364,-0.01171 -3.456022,-0.0045 l -1.050745,0.0065 -0.0294,-0.02341 -0.0294,-0.02417 -1.757412,7.45e-4 c -2.522869,0.0014 -3.925315,0.0072 -3.977579,0.01684 -0.07513,0.01318 -0.149172,0.04318 -0.213415,0.08563 -0.121865,0.08197 -0.173041,0.193964 -0.139287,0.306684 z m 2.337771,0.234955 c 0.327743,-0.0029 1.048567,-0.0051 1.602793,-0.0059 h 1.00719 l -0.03267,0.0183 c -0.0185,0.01019 -0.05663,0.03295 -0.08602,0.05123 l -0.05335,0.03366 -0.458408,-0.0045 c -0.252612,-0.0022 -0.907015,-0.0059 -1.45471,-0.0082 -0.852573,-0.0037 -1.003924,-0.0059 -1.047478,-0.01537 -0.05771,-0.01243 -0.10453,-0.04391 -0.08493,-0.05709 0.0077,-0.0059 0.204704,-0.0095 0.60758,-0.01244 z"
       id="path16550"
       style="fill:#ffffff;stroke:none;stroke-width:0.000892733"
       sodipodi:nodetypes="ccccsccccccccccccccccccccccccccccccccccccccccc" />
    <path
       style="fill:none;stroke:#ffffff;stroke-width:0.5;stroke-linecap:butt;stroke-linejoin:miter;stroke-miterlimit:4;stroke-dasharray:none;stroke-dashoffset:0;stroke-opacity:1"
       d="m 42.947341,42.784448 c -1.803074,1.093302 -0.07712,-0.06023 0.117961,-0.29819 0.351596,-0.428867 0.869065,-1.256501 0.969505,-1.44782 1.67579,-3.192059 2.886886,0.167332 2.438513,0.97957 -4.174276,9.925497 -31.066308,-1.009121 -25.134852,3.82186"
       id="path15441"
       sodipodi:nodetypes="csscc" />
  </g>
</svg>
